<svg width="201" height="24" viewBox="0 0 201 24" fill="none" xmlns="http://www.w3.org/2000/svg">
<path d="M0.0975873 21.9836C0.0325291 21.6787 0 21.0908 0 20.2197C0 19.3486 0.162645 18.4231 0.487937 17.4432H0.780699C0.759012 17.6827 0.748169 17.9222 0.748169 18.1618C0.748169 19.4902 1.14936 20.6008 1.95175 21.4936C2.75413 22.3647 3.81675 22.8002 5.1396 22.8002C6.50582 22.8002 7.62265 22.3865 8.4901 21.559C9.37923 20.7314 9.82379 19.697 9.82379 18.4558C9.82379 17.1927 9.40091 16.1692 8.55515 15.3853L2.30957 9.57087C1.13852 8.48203 0.552995 7.16454 0.552995 5.61839C0.552995 4.07225 1.06262 2.75476 2.08186 1.66592C3.12279 0.555307 4.52155 0 6.27812 0C7.10219 0 8.03469 0.108883 9.07562 0.32665H10.3443V4.34446H10.0515C10.0515 3.32095 9.69367 2.50432 8.97803 1.89458C8.28408 1.28483 7.38411 0.979953 6.27812 0.979953C5.17213 0.979953 4.23963 1.35016 3.48061 2.09057C2.74329 2.83097 2.37462 3.75648 2.37462 4.8671C2.37462 5.97771 2.80835 6.93589 3.67579 7.74162L10.084 13.6867C11.1683 14.6884 11.7105 16.0603 11.7105 17.8025C11.7105 19.5446 11.1575 20.9819 10.0515 22.1143C8.9455 23.2249 7.47085 23.7802 5.62753 23.7802C4.67335 23.7802 3.6541 23.6277 2.5698 23.3229C1.50718 23.0398 0.683111 22.5933 0.0975873 21.9836Z" fill="#5285D5"/>
<path d="M29.8165 22.9962C30.3153 22.9962 30.749 22.8329 31.1176 22.5062C31.4863 22.1578 31.6815 21.7441 31.7032 21.265V14.144H19.6999V21.265C19.7216 21.7441 19.9168 22.1578 20.2855 22.5062C20.6541 22.8329 21.0878 22.9962 21.5866 22.9962H21.977V23.3229H15.341V22.9962H15.7314C16.2518 22.9962 16.6856 22.822 17.0325 22.4736C17.4012 22.1251 17.5964 21.7114 17.6181 21.2323V5.81438C17.5964 5.3353 17.4012 4.92154 17.0325 4.57311C16.6639 4.22468 16.2302 4.05047 15.7314 4.05047H15.341V3.72382H21.977V4.05047H21.5866C21.0878 4.05047 20.6541 4.22468 20.2855 4.57311C19.9168 4.89976 19.7216 5.30263 19.6999 5.78172V13.164H31.7032V5.81438C31.7032 5.3353 31.5622 4.96509 31.2803 4.70377C30.8249 4.26824 30.3369 4.05047 29.8165 4.05047H29.4261V3.72382H36.0621V4.05047H35.6717C35.1729 4.05047 34.7392 4.2138 34.3706 4.54045C34.0019 4.8671 33.8067 5.26997 33.785 5.74905V21.265C33.8067 21.7441 33.9477 22.1034 34.2079 22.3429C34.685 22.7785 35.1729 22.9962 35.6717 22.9962H36.0621V23.3229H29.4261V22.9962H29.8165Z" fill="#5285D5"/>
<path d="M59.4535 4.05047H58.9656C58.3801 4.05047 57.9355 4.27913 57.6319 4.73644C57.5018 4.93243 57.4259 5.16108 57.4042 5.4224V16.4305C57.4042 18.6953 56.6777 20.4919 55.2248 21.8203C53.7935 23.1269 51.8201 23.7802 49.3045 23.7802C46.7889 23.7802 44.8046 23.1269 43.3516 21.8203C41.8987 20.5137 41.1722 18.728 41.1722 16.4632V5.45507C41.1722 5.06309 41.0204 4.73644 40.7168 4.47512C40.4132 4.19202 40.0445 4.05047 39.6108 4.05047H39.1229V3.72382H45.3034V4.05047H44.8154C44.3817 4.05047 44.0131 4.19202 43.7095 4.47512C43.4059 4.73644 43.2541 5.06309 43.2541 5.45507V16.0712C43.2541 18.1836 43.7854 19.8495 44.848 21.069C45.9323 22.2885 47.4503 22.8982 49.4021 22.8982C51.3755 22.8982 52.9477 22.3211 54.1188 21.167C55.3115 20.0128 55.9079 18.434 55.9079 16.4305V5.45507C55.8862 5.04131 55.7235 4.70377 55.4199 4.44245C55.138 4.18113 54.7802 4.05047 54.3465 4.05047H53.8585V3.72382H59.4535V4.05047Z" fill="#5285D5"/>
<path d="M71.0728 4.67111V21.265C71.0945 21.94 71.4198 22.4409 72.0487 22.7676C72.3306 22.92 72.645 22.9962 72.992 22.9962H73.3498V23.3229H66.6488V22.9962H67.0392C67.5596 22.9962 68.0042 22.822 68.3729 22.4736C68.7415 22.1251 68.9367 21.7114 68.9584 21.2323V4.67111H63.0706C62.5719 4.67111 62.1707 4.83443 61.8671 5.16108C61.5851 5.48773 61.4442 5.87971 61.4442 6.33702V6.85967H61.0864V3.16851C61.5201 3.34273 62.1273 3.47339 62.908 3.56049C63.7104 3.6476 64.3067 3.69116 64.6971 3.69116H75.3016C76.863 3.69116 78.0774 3.51694 78.9448 3.16851V6.85967H78.587V6.33702C78.587 5.87971 78.4352 5.48773 78.1316 5.16108C77.828 4.83443 77.4377 4.67111 76.9606 4.67111H71.0728Z" fill="#5285D5"/>
<path d="M90.3552 4.67111V21.265C90.3769 21.94 90.7022 22.4409 91.3311 22.7676C91.613 22.92 91.9274 22.9962 92.2744 22.9962H92.6322V23.3229H85.9312V22.9962H86.3216C86.842 22.9962 87.2866 22.822 87.6553 22.4736C88.0239 22.1251 88.2191 21.7114 88.2408 21.2323V4.67111H82.353C81.8542 4.67111 81.4531 4.83443 81.1495 5.16108C80.8675 5.48773 80.7266 5.87971 80.7266 6.33702V6.85967H80.3688V3.16851C80.8025 3.34273 81.4097 3.47339 82.1904 3.56049C82.9928 3.6476 83.5891 3.69116 83.9795 3.69116H94.584C96.1454 3.69116 97.3598 3.51694 98.2272 3.16851V6.85967H97.8694V6.33702C97.8694 5.87971 97.7176 5.48773 97.414 5.16108C97.1104 4.83443 96.72 4.67111 96.2429 4.67111H90.3552Z" fill="#5285D5"/>
<path d="M100.931 22.9962C101.452 22.9962 101.885 22.8329 102.232 22.5062C102.601 22.1578 102.796 21.7441 102.818 21.265V5.81438C102.796 5.3353 102.59 4.92154 102.2 4.57311C101.831 4.22468 101.387 4.05047 100.866 4.05047H100.476V3.72382H107.209V4.05047H106.819C106.299 4.05047 105.843 4.22468 105.453 4.57311C105.084 4.92154 104.9 5.3353 104.9 5.81438V22.3102H109.974C110.972 22.3102 111.818 22.136 112.512 21.7876C113.206 21.4392 113.726 21.0254 114.073 20.5463C114.442 20.0672 114.799 19.4357 115.146 18.6518H115.472L113.683 23.3229H100.476V22.9962H100.931Z" fill="#5285D5"/>
<path d="M117.577 22.9962C118.097 22.9962 118.531 22.8329 118.878 22.5062C119.247 22.1578 119.442 21.7441 119.464 21.265V5.74905C119.464 5.26997 119.279 4.8671 118.911 4.54045C118.542 4.2138 118.097 4.05047 117.577 4.05047H117.122V3.72382H126.62C127.509 3.72382 128.29 3.65849 128.962 3.52783C129.634 3.39717 130.068 3.28828 130.263 3.20118V6.925L129.905 6.89233V6.40236C129.905 5.94504 129.754 5.55306 129.45 5.22641C129.146 4.89976 128.756 4.73644 128.279 4.73644H121.513V13.0334H127.075C127.509 13.0334 127.834 12.9027 128.051 12.6414C128.29 12.3801 128.409 12.0534 128.409 11.6614V11.2368H128.767V15.8099H128.409V15.3853C128.409 14.7755 128.181 14.3617 127.726 14.144C127.553 14.0787 127.368 14.0351 127.173 14.0133H121.513V22.3102H126.62C127.618 22.3102 128.453 22.136 129.125 21.7876C129.819 21.4392 130.339 21.0254 130.686 20.5463C131.055 20.0672 131.424 19.4357 131.792 18.6518H132.117L130.328 23.3229H117.122V22.9962H117.577Z" fill="#5285D5"/>
<path d="M158.365 6.76167C158.365 7.71985 158.17 8.61269 157.78 9.44021C157.064 10.9864 155.806 12.0643 154.006 12.6741C153.377 12.8918 152.835 13.0007 152.38 13.0007C151.035 13.0007 149.875 12.7503 148.899 12.2494V11.9228C150.482 12.2712 151.946 12.097 153.291 11.4001C154.483 10.7904 155.297 9.78864 155.73 8.39493C155.86 7.95939 155.925 7.54563 155.925 7.15365C155.925 6.76167 155.925 6.52213 155.925 6.43502C155.882 4.91065 155.481 3.70204 154.722 2.8092C153.963 1.89458 152.9 1.43726 151.534 1.43726H147.793V20.9383C147.815 21.5045 148.021 21.9945 148.411 22.4082C148.823 22.8002 149.311 22.9962 149.875 22.9962H150.298V23.3229H143.174V22.9962H143.597C144.161 22.9962 144.638 22.8002 145.028 22.4082C145.44 21.9945 145.657 21.5045 145.679 20.9383V2.67854C145.614 2.13412 145.386 1.6877 144.996 1.33927C144.605 0.969064 144.139 0.783962 143.597 0.783962H143.207L143.174 0.457311H151.664C153.746 0.457311 155.383 1.02351 156.576 2.1559C157.769 3.26651 158.365 4.80177 158.365 6.76167Z" fill="#5285D5"/>
<path d="M167.551 4.73644H165.827V21.2323C165.848 21.9074 166.152 22.4191 166.738 22.7676C167.02 22.92 167.334 22.9962 167.681 22.9962H168.104L168.136 23.3229H161.468V22.9962H161.923C162.422 22.9962 162.845 22.8329 163.192 22.5062C163.561 22.1578 163.745 21.7441 163.745 21.265V5.74905C163.745 5.26997 163.561 4.8671 163.192 4.54045C162.845 4.2138 162.422 4.05047 161.923 4.05047H161.468V3.72382H169.633C171.671 3.72382 173.276 4.19202 174.447 5.12842C175.64 6.06482 176.236 7.2952 176.236 8.81957C176.236 10.3439 175.759 11.6179 174.805 12.6414C173.851 13.6649 172.636 14.2529 171.162 14.4053C171.855 14.7102 172.69 15.5595 173.666 16.9532C173.645 16.9532 174.013 17.4323 174.772 18.3904C175.553 19.3486 176.171 20.0999 176.626 20.6443C177.104 21.167 177.494 21.5698 177.797 21.8529C178.6 22.6151 179.188 22.9962 180.229 22.9962V23.3229H179.554C177.841 23.3229 176.496 22.9853 175.52 22.3102C174.783 21.8094 174.111 21.1887 173.504 20.4483C173.374 20.2741 172.821 19.5119 171.845 18.1618C170.89 16.7899 170.381 16.0603 170.316 15.9732C169.145 14.5142 168.05 13.7847 167.03 13.7847V13.458C169.568 13.458 171.096 13.3274 171.617 13.066C172.333 12.6958 172.821 12.3038 173.081 11.8901C173.623 11.019 173.894 10.0608 173.894 9.01556C173.894 7.68718 173.504 6.66368 172.723 5.94505C171.942 5.22641 170.89 4.83443 169.568 4.7691C168.982 4.74733 168.31 4.73644 167.551 4.73644Z" fill="#5285D5"/>
<path d="M184.396 5.04439C186.051 4.18472 187.867 3.75488 189.844 3.75488C191.843 3.75488 193.67 4.18472 195.325 5.04439C196.98 5.88257 198.291 7.07536 199.258 8.62277C200.246 10.1702 200.741 11.9218 200.741 13.8775C200.741 15.8333 200.246 17.5848 199.258 19.1322C198.291 20.6797 196.98 21.8832 195.325 22.7429C193.67 23.581 191.972 24.0001 190.231 24.0001C188.49 24.0001 186.954 23.753 185.621 23.2587C184.289 22.7644 183.128 22.0766 182.14 21.1955C181.172 20.3143 180.399 19.2397 179.819 17.9717C179.26 16.7037 178.98 15.2207 178.98 13.5229C178.98 11.8035 179.464 10.1702 180.431 8.62277C181.42 7.07536 182.741 5.88257 184.396 5.04439ZM183.784 20.4862C185.417 22.1841 187.437 23.033 189.844 23.033C192.251 23.033 194.272 22.1841 195.905 20.4862C197.538 18.7669 198.355 16.564 198.355 13.8775C198.355 11.191 197.538 8.99887 195.905 7.30102C194.272 5.58168 192.251 4.72201 189.844 4.72201C187.437 4.72201 185.417 5.58168 183.784 7.30102C182.172 8.99887 181.366 11.191 181.366 13.8775C181.366 16.564 182.172 18.7669 183.784 20.4862Z" fill="#5285D5"/>
<path d="M196.266 7.94409L195.286 7.70591C195.053 7.64881 194.81 7.64322 194.575 7.68956C194.34 7.73589 194.119 7.83295 193.928 7.97352L192.062 9.34028C191.92 9.14519 191.708 9.00852 191.467 8.95718C191.227 8.90584 190.975 8.94354 190.761 9.06285L190.676 9.11075C190.668 9.11545 190.66 9.1217 190.655 9.12914C190.649 9.13658 190.644 9.14506 190.642 9.15411C190.639 9.16316 190.639 9.17259 190.64 9.18187C190.641 9.19115 190.645 9.20009 190.649 9.20819L191.135 10.0186L190.978 10.1339C190.964 10.1444 190.954 10.1596 190.95 10.1767C190.947 10.1937 190.95 10.2115 190.959 10.2265L191.095 10.4547C191.083 10.4477 191.07 10.4409 191.058 10.4344C191.005 10.4084 190.95 10.3879 190.893 10.3733C190.887 10.3716 190.88 10.3701 190.874 10.3685C190.655 10.317 190.563 10.4331 190.369 10.5425C190.174 10.6519 189.955 10.7981 189.893 11.0074L189.595 11.4775C189.592 11.4866 189.591 11.4961 189.592 11.5055C189.594 11.5148 189.597 11.5239 189.602 11.5321C189.606 11.5403 189.613 11.5474 189.621 11.5532C189.628 11.5589 189.637 11.5631 189.647 11.5656L189.647 11.5658L190.271 11.6428C190.49 11.6944 190.776 11.7462 190.97 11.6369C191.165 11.5276 191.406 11.5701 191.469 11.3609C191.472 11.3487 191.476 11.3365 191.479 11.3238C191.491 11.2751 191.498 11.2254 191.501 11.1754C191.501 11.1609 191.501 11.1463 191.501 11.1319L191.638 11.3601C191.647 11.3751 191.662 11.3865 191.679 11.392C191.696 11.3974 191.714 11.3967 191.731 11.3898L191.912 11.3147L192.398 12.1251C192.403 12.1332 192.409 12.1403 192.417 12.1459C192.425 12.1516 192.434 12.1558 192.443 12.1582C192.452 12.1606 192.462 12.1612 192.472 12.16C192.481 12.1587 192.49 12.1557 192.499 12.151L192.584 12.103C192.797 11.983 192.956 11.7901 193.029 11.5624C193.102 11.3348 193.085 11.0888 192.98 10.8729L195.132 9.98241C195.353 9.89163 195.55 9.75381 195.708 9.5792C195.866 9.40459 195.982 9.1977 196.046 8.97391L196.319 8.03247C196.321 8.0233 196.322 8.01371 196.321 8.00426C196.32 7.99481 196.316 7.9857 196.311 7.97747C196.306 7.96923 196.3 7.96203 196.292 7.9563C196.284 7.95057 196.275 7.94641 196.266 7.94409ZM190.814 9.19828L190.835 9.18616C191.018 9.08426 191.233 9.0524 191.438 9.0969C191.644 9.1414 191.824 9.25901 191.944 9.42639L191.254 9.93194L190.814 9.19828ZM190.871 10.6166C190.913 10.5926 190.96 10.5771 191.009 10.5709C191.115 10.6279 191.203 10.7115 191.263 10.8129C191.324 10.9143 191.356 11.0297 191.354 11.1469C191.321 11.1893 191.278 11.224 191.229 11.2485C191.18 11.2729 191.126 11.2866 191.071 11.2885C191.016 11.2904 190.961 11.2804 190.911 11.2593C190.86 11.2383 190.815 11.2066 190.779 11.1666C190.742 11.1266 190.716 11.0793 190.7 11.0281C190.685 10.9769 190.682 10.923 190.691 10.8704C190.699 10.8178 190.72 10.7677 190.751 10.7238C190.783 10.6799 190.824 10.6433 190.871 10.6166ZM190.307 11.5044L189.757 11.4454L190.035 11.0464C190.084 10.8805 190.271 10.7699 190.422 10.6782C190.573 10.5866 190.614 10.4682 190.79 10.4975C190.673 10.5656 190.589 10.6753 190.555 10.8031C190.521 10.9309 190.54 11.0665 190.609 11.1806C190.677 11.2948 190.789 11.3783 190.921 11.4132C191.052 11.4481 191.192 11.4316 191.311 11.3672C191.251 11.5293 191.032 11.4437 190.875 11.5252C190.718 11.6066 190.48 11.5451 190.307 11.5044ZM191.733 11.234L191.119 10.2095L191.433 9.97915L192.096 11.0839L191.733 11.234ZM192.51 11.9798L192.489 11.9919L192.049 11.2583L192.845 10.9289C192.935 11.1128 192.951 11.3229 192.889 11.5175C192.827 11.7122 192.692 11.8772 192.51 11.9798ZM195.904 8.93544C195.847 9.13365 195.746 9.31733 195.608 9.47345C195.469 9.62956 195.297 9.75429 195.103 9.83879C194.961 9.39651 194.751 8.97756 194.48 8.59615C194.474 8.58818 194.467 8.58133 194.459 8.576C194.451 8.57068 194.442 8.56698 194.432 8.56514C194.422 8.5633 194.413 8.56334 194.403 8.56527C194.393 8.5672 194.384 8.57098 194.376 8.57638C194.368 8.58178 194.361 8.58869 194.356 8.59671C194.351 8.60473 194.347 8.61369 194.345 8.62307C194.344 8.63245 194.344 8.64205 194.346 8.65132C194.348 8.66058 194.353 8.66932 194.358 8.67701C194.624 9.05079 194.83 9.46172 194.967 9.89558L192.232 11.0274L191.552 9.89249L193.924 8.15539C194.012 8.24675 194.098 8.34214 194.178 8.44016C194.19 8.45487 194.207 8.46432 194.227 8.46645C194.246 8.46858 194.266 8.46321 194.281 8.45153C194.296 8.43984 194.306 8.42278 194.308 8.40408C194.311 8.38538 194.305 8.36655 194.293 8.35171C194.214 8.25472 194.13 8.16015 194.042 8.06919C194.214 7.94819 194.411 7.86531 194.62 7.82642C194.829 7.78753 195.044 7.79359 195.25 7.84417L196.156 8.06448L195.904 8.93544Z" fill="#F2F2F2"/>
<path d="M193.87 8.87896C193.831 8.90619 193.798 8.94058 193.773 8.98017C193.748 9.01975 193.731 9.06376 193.723 9.10969C193.716 9.15561 193.717 9.20254 193.728 9.2478C193.739 9.29307 193.759 9.33577 193.787 9.37349C193.843 9.44966 193.928 9.50087 194.023 9.51584C194.07 9.52326 194.119 9.52156 194.165 9.51084C194.211 9.50012 194.255 9.48059 194.294 9.45336C194.372 9.39837 194.425 9.31537 194.441 9.22263C194.456 9.12989 194.433 9.035 194.377 8.95883C194.321 8.88266 194.236 8.83146 194.141 8.81648C194.046 8.80151 193.948 8.82399 193.87 8.87898L193.87 8.87896ZM194.208 9.3369C194.173 9.3613 194.132 9.37512 194.089 9.37664C194.047 9.37815 194.005 9.36728 193.968 9.34541C193.932 9.32353 193.903 9.29163 193.885 9.25374C193.868 9.21585 193.862 9.17367 193.869 9.13254C193.876 9.09141 193.895 9.05317 193.924 9.02266C193.953 8.99215 193.991 8.97074 194.033 8.96114C194.074 8.95154 194.118 8.95418 194.158 8.96873C194.198 8.98327 194.233 9.00907 194.258 9.04286C194.291 9.08819 194.304 9.14458 194.295 9.19969C194.286 9.2548 194.255 9.30413 194.208 9.3369Z" fill="#F2F2F2"/>
<path d="M193.359 9.16298C193.3 9.15375 193.24 9.15882 193.183 9.17776C193.127 9.19669 193.076 9.2289 193.035 9.27153C192.994 9.31416 192.965 9.3659 192.949 9.42217C192.934 9.47844 192.933 9.5375 192.947 9.59413C192.96 9.65076 192.988 9.70322 193.028 9.74685C193.067 9.79049 193.117 9.82395 193.173 9.84429C193.229 9.86463 193.289 9.87122 193.348 9.86347C193.407 9.85572 193.464 9.83387 193.512 9.79985C193.571 9.75887 193.615 9.70194 193.641 9.63629C193.666 9.57064 193.671 9.4992 193.654 9.43102C193.638 9.36284 193.601 9.30099 193.548 9.25328C193.496 9.20557 193.43 9.17415 193.359 9.163L193.359 9.16298ZM193.426 9.68341C193.392 9.7078 193.35 9.72163 193.308 9.72315C193.265 9.72466 193.223 9.71379 193.186 9.69192C193.15 9.67004 193.121 9.63814 193.103 9.60025C193.086 9.56236 193.08 9.52018 193.087 9.47905C193.094 9.43792 193.113 9.39968 193.142 9.36917C193.171 9.33866 193.209 9.31726 193.251 9.30766C193.292 9.29806 193.336 9.3007 193.376 9.31525C193.416 9.3298 193.451 9.3556 193.476 9.38939C193.509 9.43472 193.523 9.4911 193.513 9.5462C193.504 9.60131 193.473 9.65064 193.426 9.68341Z" fill="#F2F2F2"/>
<path d="M192.304 9.63823C192.226 9.69345 192.174 9.77631 192.159 9.86873C192.143 9.96114 192.166 10.0556 192.222 10.1315C192.278 10.2073 192.363 10.2584 192.458 10.2736C192.552 10.2888 192.649 10.2669 192.728 10.2125C192.767 10.1854 192.8 10.1511 192.825 10.1115C192.851 10.0718 192.868 10.0277 192.876 9.98167C192.884 9.9356 192.882 9.8885 192.871 9.84305C192.861 9.79761 192.841 9.75473 192.813 9.71687C192.785 9.67902 192.749 9.64695 192.709 9.62249C192.668 9.59803 192.622 9.58168 192.575 9.57437C192.528 9.56707 192.48 9.56894 192.433 9.5799C192.386 9.59086 192.342 9.61069 192.304 9.63823ZM192.642 10.0962C192.601 10.1247 192.552 10.1386 192.502 10.1356C192.452 10.1325 192.405 10.1128 192.368 10.0796C192.332 10.0464 192.308 10.0019 192.302 9.95357C192.295 9.90529 192.306 9.85625 192.332 9.81479C192.359 9.77333 192.399 9.74203 192.446 9.72622C192.493 9.7104 192.545 9.71105 192.592 9.72806C192.639 9.74507 192.678 9.77738 192.703 9.81948C192.728 9.86159 192.737 9.91089 192.729 9.95899C192.72 10.0141 192.688 10.0635 192.642 10.0962L192.642 10.0962Z" fill="#F2F2F2"/>
<path d="M195.049 7.90609C194.812 7.87765 194.571 7.91734 194.356 8.02032C194.347 8.02444 194.339 8.03021 194.333 8.0373C194.327 8.04438 194.322 8.05264 194.318 8.0616C194.315 8.07055 194.314 8.08003 194.314 8.08948C194.315 8.09893 194.318 8.10817 194.322 8.11667C194.326 8.12516 194.332 8.13275 194.339 8.13898C194.347 8.14522 194.355 8.14998 194.364 8.15299C194.374 8.15601 194.383 8.15721 194.393 8.15655C194.403 8.15588 194.412 8.15335 194.421 8.1491C194.61 8.05845 194.822 8.02354 195.031 8.04863C195.041 8.04983 195.051 8.04915 195.06 8.04664C195.069 8.04413 195.078 8.03984 195.086 8.03402C195.093 8.0282 195.1 8.02096 195.105 8.01272C195.109 8.00448 195.112 7.9954 195.114 7.986C195.115 7.9766 195.114 7.96707 195.112 7.95796C195.109 7.94885 195.104 7.94034 195.098 7.93291C195.092 7.92548 195.085 7.91929 195.077 7.91469C195.068 7.91008 195.059 7.90716 195.049 7.90609Z" fill="#F2F2F2"/>
<path d="M195.301 8.09059L195.302 8.09074L195.396 8.10438C195.415 8.10718 195.435 8.10238 195.451 8.09104C195.466 8.0797 195.477 8.06275 195.48 8.04392C195.483 8.02509 195.478 8.00592 195.466 7.99062C195.454 7.97533 195.437 7.96517 195.418 7.96237L195.324 7.94873C195.314 7.94728 195.304 7.94769 195.295 7.94991C195.285 7.95214 195.277 7.95615 195.269 7.96172C195.261 7.96728 195.254 7.97429 195.249 7.98234C195.244 7.99039 195.241 7.99933 195.239 8.00864C195.238 8.01796 195.238 8.02747 195.241 8.03663C195.243 8.04579 195.247 8.05442 195.253 8.06202C195.258 8.06963 195.265 8.07607 195.274 8.08097C195.282 8.08587 195.291 8.08914 195.301 8.09059Z" fill="#F2F2F2"/>
<path d="M179.956 21.856C176.175 19.8659 184.257 14.1169 188.77 11.3688L189.494 12.5935C178.804 18.3647 178.712 21.0742 179.956 21.856Z" fill="#FD8935"/>
</svg>
